<mxfile host="Electron" agent="Mozilla/5.0 (Macintosh; Intel Mac OS X 10_15_7) AppleWebKit/537.36 (KHTML, like Gecko) draw.io/25.0.2 Chrome/128.0.6613.186 Electron/32.2.5 Safari/537.36" version="25.0.2">
  <diagram id="C5RBs43oDa-KdzZeNtuy" name="Page-1">
    <mxGraphModel dx="3882" dy="2813" grid="1" gridSize="10" guides="1" tooltips="1" connect="1" arrows="1" fold="1" page="1" pageScale="1" pageWidth="827" pageHeight="1169" math="0" shadow="0">
      <root>
        <mxCell id="WIyWlLk6GJQsqaUBKTNV-0" />
        <mxCell id="WIyWlLk6GJQsqaUBKTNV-1" parent="WIyWlLk6GJQsqaUBKTNV-0" />
        <mxCell id="IBJ0tuOsSYh19sOJ16CG-8" value="XyzEmployee" style="swimlane;fontStyle=1;align=center;verticalAlign=top;childLayout=stackLayout;horizontal=1;startSize=40;horizontalStack=0;resizeParent=1;resizeParentMax=0;resizeLast=0;collapsible=1;marginBottom=0;whiteSpace=wrap;html=1;" vertex="1" parent="WIyWlLk6GJQsqaUBKTNV-1">
          <mxGeometry x="-586" y="150" width="380" height="560" as="geometry" />
        </mxCell>
        <mxCell id="IBJ0tuOsSYh19sOJ16CG-9" value="&lt;div style=&quot;color: rgb(204, 204, 204); font-family: Menlo, Monaco, &amp;quot;Courier New&amp;quot;, monospace; white-space: pre;&quot;&gt;&lt;span style=&quot;color: rgb(156, 220, 254);&quot;&gt;mEmpName:&lt;/span&gt;&lt;span style=&quot;color: rgb(78, 201, 176); background-color: initial;&quot;&gt; string&lt;/span&gt;&lt;/div&gt;&lt;span style=&quot;font-family: Menlo, Monaco, &amp;quot;Courier New&amp;quot;, monospace; white-space: pre; background-color: initial; color: rgb(156, 220, 254);&quot;&gt;mEmpid&lt;/span&gt;&lt;span style=&quot;font-family: Menlo, Monaco, &amp;quot;Courier New&amp;quot;, monospace; white-space: pre; background-color: initial;&quot;&gt;&lt;font color=&quot;#cccccc&quot;&gt;:&lt;/font&gt;&lt;/span&gt;&lt;span style=&quot;color: rgb(78, 201, 176); font-family: Menlo, Monaco, &amp;quot;Courier New&amp;quot;, monospace; white-space: pre;&quot;&gt; string&lt;/span&gt;&lt;br&gt;&lt;span style=&quot;font-family: Menlo, Monaco, &amp;quot;Courier New&amp;quot;, monospace; white-space: pre; background-color: initial; color: rgb(156, 220, 254);&quot;&gt;mEmpGender&lt;/span&gt;&lt;span style=&quot;font-family: Menlo, Monaco, &amp;quot;Courier New&amp;quot;, monospace; white-space: pre; background-color: initial;&quot;&gt;&lt;font color=&quot;#cccccc&quot;&gt;:&lt;/font&gt;&lt;/span&gt;&lt;span style=&quot;color: rgb(78, 201, 176); font-family: Menlo, Monaco, &amp;quot;Courier New&amp;quot;, monospace; white-space: pre;&quot;&gt; string&lt;/span&gt;&lt;br&gt;&lt;span style=&quot;font-family: Menlo, Monaco, &amp;quot;Courier New&amp;quot;, monospace; white-space: pre; background-color: initial; color: rgb(156, 220, 254);&quot;&gt;mEmpDOB&lt;/span&gt;&lt;span style=&quot;font-family: Menlo, Monaco, &amp;quot;Courier New&amp;quot;, monospace; white-space: pre; background-color: initial;&quot;&gt;&lt;font color=&quot;#cccccc&quot;&gt;:&lt;/font&gt;&lt;/span&gt;&lt;span style=&quot;color: rgb(78, 201, 176); font-family: Menlo, Monaco, &amp;quot;Courier New&amp;quot;, monospace; white-space: pre;&quot;&gt; string&lt;/span&gt;&lt;br&gt;&lt;span style=&quot;font-family: Menlo, Monaco, &amp;quot;Courier New&amp;quot;, monospace; white-space: pre; background-color: initial; color: rgb(156, 220, 254);&quot;&gt;mEmpType&lt;/span&gt;&lt;span style=&quot;font-family: Menlo, Monaco, &amp;quot;Courier New&amp;quot;, monospace; white-space: pre; background-color: initial;&quot;&gt;&lt;font color=&quot;#cccccc&quot;&gt;: EmpType&lt;/font&gt;&lt;/span&gt;&lt;br&gt;&lt;span style=&quot;font-family: Menlo, Monaco, &amp;quot;Courier New&amp;quot;, monospace; white-space: pre; background-color: initial; color: rgb(156, 220, 254);&quot;&gt;mEmpStatus&lt;/span&gt;&lt;span style=&quot;font-family: Menlo, Monaco, &amp;quot;Courier New&amp;quot;, monospace; white-space: pre; background-color: initial;&quot;&gt;&lt;font color=&quot;#cccccc&quot;&gt;: EmpStatus&lt;/font&gt;&lt;/span&gt;&lt;br&gt;&lt;span style=&quot;font-family: Menlo, Monaco, &amp;quot;Courier New&amp;quot;, monospace; white-space: pre; background-color: initial; color: rgb(156, 220, 254);&quot;&gt;mEmpDOJ&lt;/span&gt;&lt;span style=&quot;font-family: Menlo, Monaco, &amp;quot;Courier New&amp;quot;, monospace; white-space: pre; background-color: initial;&quot;&gt;&lt;font color=&quot;#cccccc&quot;&gt;: &lt;/font&gt;&lt;/span&gt;&lt;span style=&quot;color: rgb(78, 201, 176); font-family: Menlo, Monaco, &amp;quot;Courier New&amp;quot;, monospace; white-space: pre;&quot;&gt;string&lt;/span&gt;&lt;br&gt;&lt;div style=&quot;font-family: Menlo, Monaco, &amp;quot;Courier New&amp;quot;, monospace; white-space: pre;&quot;&gt;&lt;span style=&quot;color: rgb(156, 220, 254);&quot;&gt;mEmpDOL&lt;/span&gt;&lt;font color=&quot;#cccccc&quot;&gt;:&lt;/font&gt;&lt;span style=&quot;color: rgb(106, 153, 85);&quot;&gt; &lt;/span&gt;&lt;span style=&quot;color: rgb(78, 201, 176); background-color: initial;&quot;&gt;string&lt;/span&gt;&lt;/div&gt;&lt;br style=&quot;color: rgb(204, 204, 204); font-family: Menlo, Monaco, &amp;quot;Courier New&amp;quot;, monospace; white-space: pre;&quot;&gt;&lt;div style=&quot;color: rgb(204, 204, 204); font-family: Menlo, Monaco, &amp;quot;Courier New&amp;quot;, monospace; white-space: pre;&quot;&gt;&lt;br&gt;&lt;/div&gt;" style="text;strokeColor=none;fillColor=none;align=left;verticalAlign=top;spacingLeft=4;spacingRight=4;overflow=hidden;rotatable=0;points=[[0,0.5],[1,0.5]];portConstraint=eastwest;whiteSpace=wrap;html=1;" vertex="1" parent="IBJ0tuOsSYh19sOJ16CG-8">
          <mxGeometry y="40" width="380" height="140" as="geometry" />
        </mxCell>
        <mxCell id="IBJ0tuOsSYh19sOJ16CG-10" value="" style="line;strokeWidth=1;fillColor=none;align=left;verticalAlign=middle;spacingTop=-1;spacingLeft=3;spacingRight=3;rotatable=0;labelPosition=right;points=[];portConstraint=eastwest;strokeColor=inherit;" vertex="1" parent="IBJ0tuOsSYh19sOJ16CG-8">
          <mxGeometry y="180" width="380" height="8" as="geometry" />
        </mxCell>
        <mxCell id="IBJ0tuOsSYh19sOJ16CG-11" value="&lt;div style=&quot;forced-color-adjust: none; border-color: rgb(0, 0, 0); color: rgb(204, 204, 204); font-family: Menlo, Monaco, &amp;quot;Courier New&amp;quot;, monospace; font-size: 12px; font-style: normal; font-variant-ligatures: normal; font-variant-caps: normal; font-weight: 400; letter-spacing: normal; orphans: 2; text-align: left; text-indent: 0px; text-transform: none; widows: 2; word-spacing: 0px; -webkit-text-stroke-width: 0px; white-space: pre; text-decoration-thickness: initial; text-decoration-style: initial; text-decoration-color: initial;&quot;&gt;&lt;span style=&quot;forced-color-adjust: none; border-color: rgb(0, 0, 0); color: rgb(220, 220, 170);&quot;&gt;getEmployeeName&lt;/span&gt;(): &lt;span style=&quot;forced-color-adjust: none; border-color: rgb(0, 0, 0); color: rgb(78, 201, 176);&quot;&gt;string&lt;/span&gt;&lt;/div&gt;&lt;div style=&quot;forced-color-adjust: none; border-color: rgb(0, 0, 0); color: rgb(204, 204, 204); font-family: Menlo, Monaco, &amp;quot;Courier New&amp;quot;, monospace; font-size: 12px; font-style: normal; font-variant-ligatures: normal; font-variant-caps: normal; font-weight: 400; letter-spacing: normal; orphans: 2; text-align: left; text-indent: 0px; text-transform: none; widows: 2; word-spacing: 0px; -webkit-text-stroke-width: 0px; white-space: pre; text-decoration-thickness: initial; text-decoration-style: initial; text-decoration-color: initial;&quot;&gt;&lt;span style=&quot;forced-color-adjust: none; border-color: rgb(0, 0, 0); color: rgb(220, 220, 170);&quot;&gt;getEmployeeGender&lt;/span&gt;(): &lt;span style=&quot;forced-color-adjust: none; border-color: rgb(0, 0, 0); color: rgb(78, 201, 176);&quot;&gt;string&lt;/span&gt;&lt;/div&gt;&lt;div style=&quot;forced-color-adjust: none; border-color: rgb(0, 0, 0); color: rgb(204, 204, 204); font-family: Menlo, Monaco, &amp;quot;Courier New&amp;quot;, monospace; font-size: 12px; font-style: normal; font-variant-ligatures: normal; font-variant-caps: normal; font-weight: 400; letter-spacing: normal; orphans: 2; text-align: left; text-indent: 0px; text-transform: none; widows: 2; word-spacing: 0px; -webkit-text-stroke-width: 0px; white-space: pre; text-decoration-thickness: initial; text-decoration-style: initial; text-decoration-color: initial;&quot;&gt;&lt;span style=&quot;forced-color-adjust: none; border-color: rgb(0, 0, 0); color: rgb(220, 220, 170);&quot;&gt;getEmployeeDOB&lt;/span&gt;(): &lt;span style=&quot;forced-color-adjust: none; border-color: rgb(0, 0, 0); color: rgb(78, 201, 176);&quot;&gt;string&lt;/span&gt;&lt;/div&gt;&lt;div style=&quot;forced-color-adjust: none; border-color: rgb(0, 0, 0); color: rgb(204, 204, 204); font-family: Menlo, Monaco, &amp;quot;Courier New&amp;quot;, monospace; font-size: 12px; font-style: normal; font-variant-ligatures: normal; font-variant-caps: normal; font-weight: 400; letter-spacing: normal; orphans: 2; text-align: left; text-indent: 0px; text-transform: none; widows: 2; word-spacing: 0px; -webkit-text-stroke-width: 0px; white-space: pre; text-decoration-thickness: initial; text-decoration-style: initial; text-decoration-color: initial;&quot;&gt;&lt;span style=&quot;forced-color-adjust: none; border-color: rgb(0, 0, 0); color: rgb(220, 220, 170);&quot;&gt;getEmployeeType&lt;/span&gt;(): &lt;span style=&quot;forced-color-adjust: none; border-color: rgb(0, 0, 0); color: rgb(78, 201, 176);&quot;&gt;EmpType&lt;/span&gt;&lt;/div&gt;&lt;div style=&quot;forced-color-adjust: none; border-color: rgb(0, 0, 0); color: rgb(204, 204, 204); font-family: Menlo, Monaco, &amp;quot;Courier New&amp;quot;, monospace; font-size: 12px; font-style: normal; font-variant-ligatures: normal; font-variant-caps: normal; font-weight: 400; letter-spacing: normal; orphans: 2; text-align: left; text-indent: 0px; text-transform: none; widows: 2; word-spacing: 0px; -webkit-text-stroke-width: 0px; white-space: pre; text-decoration-thickness: initial; text-decoration-style: initial; text-decoration-color: initial;&quot;&gt;&lt;span style=&quot;forced-color-adjust: none; border-color: rgb(0, 0, 0); color: rgb(220, 220, 170);&quot;&gt;setEmployeeType&lt;/span&gt;(&lt;span style=&quot;forced-color-adjust: none; border-color: rgb(0, 0, 0); color: rgb(78, 201, 176);&quot;&gt;EmpType&lt;/span&gt; &lt;span style=&quot;forced-color-adjust: none; border-color: rgb(0, 0, 0); color: rgb(156, 220, 254);&quot;&gt;empTypeParam&lt;/span&gt;): &lt;span style=&quot;forced-color-adjust: none; border-color: rgb(0, 0, 0); color: rgb(86, 156, 214);&quot;&gt;void&lt;/span&gt;&lt;/div&gt;&lt;div style=&quot;forced-color-adjust: none; border-color: rgb(0, 0, 0); color: rgb(204, 204, 204); font-family: Menlo, Monaco, &amp;quot;Courier New&amp;quot;, monospace; font-size: 12px; font-style: normal; font-variant-ligatures: normal; font-variant-caps: normal; font-weight: 400; letter-spacing: normal; orphans: 2; text-align: left; text-indent: 0px; text-transform: none; widows: 2; word-spacing: 0px; -webkit-text-stroke-width: 0px; white-space: pre; text-decoration-thickness: initial; text-decoration-style: initial; text-decoration-color: initial;&quot;&gt;&lt;span style=&quot;forced-color-adjust: none; border-color: rgb(0, 0, 0); color: rgb(220, 220, 170);&quot;&gt;getEmployeeStatus&lt;/span&gt;(): &lt;span style=&quot;forced-color-adjust: none; border-color: rgb(0, 0, 0); color: rgb(78, 201, 176);&quot;&gt;EmpStatus&lt;/span&gt;&lt;/div&gt;&lt;div style=&quot;forced-color-adjust: none; border-color: rgb(0, 0, 0); color: rgb(204, 204, 204); font-family: Menlo, Monaco, &amp;quot;Courier New&amp;quot;, monospace; font-size: 12px; font-style: normal; font-variant-ligatures: normal; font-variant-caps: normal; font-weight: 400; letter-spacing: normal; orphans: 2; text-align: left; text-indent: 0px; text-transform: none; widows: 2; word-spacing: 0px; -webkit-text-stroke-width: 0px; white-space: pre; text-decoration-thickness: initial; text-decoration-style: initial; text-decoration-color: initial;&quot;&gt;&lt;span style=&quot;forced-color-adjust: none; border-color: rgb(0, 0, 0); color: rgb(220, 220, 170);&quot;&gt;setEmployeeStatus&lt;/span&gt;(&lt;span style=&quot;forced-color-adjust: none; border-color: rgb(0, 0, 0); color: rgb(78, 201, 176);&quot;&gt;EmpStatus&lt;/span&gt; &lt;span style=&quot;forced-color-adjust: none; border-color: rgb(0, 0, 0); color: rgb(156, 220, 254);&quot;&gt;empStatusParam&lt;/span&gt;):&lt;span style=&quot;forced-color-adjust: none; border-color: rgb(0, 0, 0); color: rgb(86, 156, 214);&quot;&gt; void&lt;/span&gt;&lt;/div&gt;&lt;div style=&quot;forced-color-adjust: none; border-color: rgb(0, 0, 0); color: rgb(204, 204, 204); font-family: Menlo, Monaco, &amp;quot;Courier New&amp;quot;, monospace; font-size: 12px; font-style: normal; font-variant-ligatures: normal; font-variant-caps: normal; font-weight: 400; letter-spacing: normal; orphans: 2; text-align: left; text-indent: 0px; text-transform: none; widows: 2; word-spacing: 0px; -webkit-text-stroke-width: 0px; white-space: pre; text-decoration-thickness: initial; text-decoration-style: initial; text-decoration-color: initial;&quot;&gt;&lt;span style=&quot;forced-color-adjust: none; border-color: rgb(0, 0, 0); color: rgb(220, 220, 170);&quot;&gt;getEmployeeDOJ&lt;/span&gt;():&lt;span style=&quot;color: rgb(78, 201, 176); background-color: initial;&quot;&gt; string&lt;/span&gt;&lt;/div&gt;&lt;div style=&quot;forced-color-adjust: none; border-color: rgb(0, 0, 0); color: rgb(204, 204, 204); font-family: Menlo, Monaco, &amp;quot;Courier New&amp;quot;, monospace; font-size: 12px; font-style: normal; font-variant-ligatures: normal; font-variant-caps: normal; font-weight: 400; letter-spacing: normal; orphans: 2; text-align: left; text-indent: 0px; text-transform: none; widows: 2; word-spacing: 0px; -webkit-text-stroke-width: 0px; white-space: pre; text-decoration-thickness: initial; text-decoration-style: initial; text-decoration-color: initial;&quot;&gt;&lt;span style=&quot;forced-color-adjust: none; border-color: rgb(0, 0, 0); color: rgb(220, 220, 170);&quot;&gt;setEmployeeDOJ&lt;/span&gt;(&lt;span style=&quot;forced-color-adjust: none; border-color: rgb(0, 0, 0); color: rgb(78, 201, 176);&quot;&gt;string&lt;/span&gt; &lt;span style=&quot;forced-color-adjust: none; border-color: rgb(0, 0, 0); color: rgb(156, 220, 254);&quot;&gt;joiningDateParam&lt;/span&gt;): &lt;span style=&quot;color: rgb(86, 156, 214); background-color: initial;&quot;&gt;void&lt;/span&gt;&lt;/div&gt;&lt;div style=&quot;forced-color-adjust: none; border-color: rgb(0, 0, 0); color: rgb(204, 204, 204); font-family: Menlo, Monaco, &amp;quot;Courier New&amp;quot;, monospace; font-size: 12px; font-style: normal; font-variant-ligatures: normal; font-variant-caps: normal; font-weight: 400; letter-spacing: normal; orphans: 2; text-align: left; text-indent: 0px; text-transform: none; widows: 2; word-spacing: 0px; -webkit-text-stroke-width: 0px; white-space: pre; text-decoration-thickness: initial; text-decoration-style: initial; text-decoration-color: initial;&quot;&gt;&lt;span style=&quot;forced-color-adjust: none; border-color: rgb(0, 0, 0); color: rgb(220, 220, 170);&quot;&gt;getEmployeeDOL&lt;/span&gt;(): &lt;span style=&quot;color: rgb(78, 201, 176); background-color: initial;&quot;&gt;string&lt;/span&gt;&lt;/div&gt;&lt;div style=&quot;forced-color-adjust: none; border-color: rgb(0, 0, 0); color: rgb(204, 204, 204); font-family: Menlo, Monaco, &amp;quot;Courier New&amp;quot;, monospace; font-size: 12px; font-style: normal; font-variant-ligatures: normal; font-variant-caps: normal; font-weight: 400; letter-spacing: normal; orphans: 2; text-align: left; text-indent: 0px; text-transform: none; widows: 2; word-spacing: 0px; -webkit-text-stroke-width: 0px; white-space: pre; text-decoration-thickness: initial; text-decoration-style: initial; text-decoration-color: initial;&quot;&gt;&lt;span style=&quot;forced-color-adjust: none; border-color: rgb(0, 0, 0); color: rgb(220, 220, 170);&quot;&gt;setEmployeeDOL&lt;/span&gt;(&lt;span style=&quot;forced-color-adjust: none; border-color: rgb(0, 0, 0); color: rgb(78, 201, 176);&quot;&gt;string&lt;/span&gt; &lt;span style=&quot;forced-color-adjust: none; border-color: rgb(0, 0, 0); color: rgb(156, 220, 254);&quot;&gt;leaveDateParam&lt;/span&gt;): &lt;span style=&quot;color: rgb(86, 156, 214); background-color: initial;&quot;&gt;void&lt;/span&gt;&lt;/div&gt;&lt;div style=&quot;forced-color-adjust: none; border-color: rgb(0, 0, 0); color: rgb(204, 204, 204); font-family: Menlo, Monaco, &amp;quot;Courier New&amp;quot;, monospace; font-size: 12px; font-style: normal; font-variant-ligatures: normal; font-variant-caps: normal; font-weight: 400; letter-spacing: normal; orphans: 2; text-align: left; text-indent: 0px; text-transform: none; widows: 2; word-spacing: 0px; -webkit-text-stroke-width: 0px; white-space: pre; text-decoration-thickness: initial; text-decoration-style: initial; text-decoration-color: initial;&quot;&gt;&lt;span style=&quot;forced-color-adjust: none; border-color: rgb(0, 0, 0); color: rgb(220, 220, 170);&quot;&gt;getEmployeeId&lt;/span&gt;(): &lt;span style=&quot;background-color: initial; color: rgb(86, 156, 214);&quot;&gt;virtual&lt;/span&gt;&lt;span style=&quot;background-color: initial;&quot;&gt; &lt;/span&gt;&lt;span style=&quot;background-color: initial; color: rgb(78, 201, 176);&quot;&gt;string&lt;/span&gt;&lt;/div&gt;&lt;div style=&quot;forced-color-adjust: none; border-color: rgb(0, 0, 0); color: rgb(204, 204, 204); font-family: Menlo, Monaco, &amp;quot;Courier New&amp;quot;, monospace; font-size: 12px; font-style: normal; font-variant-ligatures: normal; font-variant-caps: normal; font-weight: 400; letter-spacing: normal; orphans: 2; text-align: left; text-indent: 0px; text-transform: none; widows: 2; word-spacing: 0px; -webkit-text-stroke-width: 0px; white-space: pre; text-decoration-thickness: initial; text-decoration-style: initial; text-decoration-color: initial;&quot;&gt;&lt;span style=&quot;forced-color-adjust: none; border-color: rgb(0, 0, 0); color: rgb(106, 153, 85);&quot;&gt;/* Fulltime */&lt;/span&gt;&lt;/div&gt;&lt;div style=&quot;forced-color-adjust: none; border-color: rgb(0, 0, 0); color: rgb(204, 204, 204); font-family: Menlo, Monaco, &amp;quot;Courier New&amp;quot;, monospace; font-size: 12px; font-style: normal; font-variant-ligatures: normal; font-variant-caps: normal; font-weight: 400; letter-spacing: normal; orphans: 2; text-align: left; text-indent: 0px; text-transform: none; widows: 2; word-spacing: 0px; -webkit-text-stroke-width: 0px; white-space: pre; text-decoration-thickness: initial; text-decoration-style: initial; text-decoration-color: initial;&quot;&gt;&lt;span style=&quot;forced-color-adjust: none; border-color: rgb(0, 0, 0); color: rgb(220, 220, 170);&quot;&gt;setNoOfLeaves&lt;/span&gt;(&lt;span style=&quot;forced-color-adjust: none; border-color: rgb(0, 0, 0); color: rgb(86, 156, 214);&quot;&gt;int&lt;/span&gt; &lt;span style=&quot;forced-color-adjust: none; border-color: rgb(0, 0, 0); color: rgb(156, 220, 254);&quot;&gt;nolParam&lt;/span&gt;): &lt;span style=&quot;background-color: initial; color: rgb(86, 156, 214);&quot;&gt;virtual&lt;/span&gt;&lt;span style=&quot;background-color: initial;&quot;&gt; &lt;/span&gt;&lt;span style=&quot;background-color: initial; color: rgb(86, 156, 214);&quot;&gt;void&lt;/span&gt;&lt;span style=&quot;background-color: initial;&quot;&gt; &lt;/span&gt;&lt;/div&gt;&lt;div style=&quot;forced-color-adjust: none; border-color: rgb(0, 0, 0); color: rgb(204, 204, 204); font-family: Menlo, Monaco, &amp;quot;Courier New&amp;quot;, monospace; font-size: 12px; font-style: normal; font-variant-ligatures: normal; font-variant-caps: normal; font-weight: 400; letter-spacing: normal; orphans: 2; text-align: left; text-indent: 0px; text-transform: none; widows: 2; word-spacing: 0px; -webkit-text-stroke-width: 0px; white-space: pre; text-decoration-thickness: initial; text-decoration-style: initial; text-decoration-color: initial;&quot;&gt;&lt;span style=&quot;forced-color-adjust: none; border-color: rgb(0, 0, 0); color: rgb(220, 220, 170);&quot;&gt;getNoOfLeaves&lt;/span&gt;(): &lt;span style=&quot;background-color: initial; color: rgb(86, 156, 214);&quot;&gt;virtual&lt;/span&gt;&lt;span style=&quot;background-color: initial;&quot;&gt; &lt;/span&gt;&lt;span style=&quot;background-color: initial; color: rgb(86, 156, 214);&quot;&gt;int&lt;/span&gt;&lt;span style=&quot;background-color: initial;&quot;&gt; &lt;/span&gt;&lt;/div&gt;&lt;div style=&quot;forced-color-adjust: none; border-color: rgb(0, 0, 0); color: rgb(204, 204, 204); font-family: Menlo, Monaco, &amp;quot;Courier New&amp;quot;, monospace; font-size: 12px; font-style: normal; font-variant-ligatures: normal; font-variant-caps: normal; font-weight: 400; letter-spacing: normal; orphans: 2; text-align: left; text-indent: 0px; text-transform: none; widows: 2; word-spacing: 0px; -webkit-text-stroke-width: 0px; white-space: pre; text-decoration-thickness: initial; text-decoration-style: initial; text-decoration-color: initial;&quot;&gt;&lt;span style=&quot;forced-color-adjust: none; border-color: rgb(0, 0, 0); color: rgb(106, 153, 85);&quot;&gt;/* Contractor */&lt;/span&gt;&lt;/div&gt;&lt;div style=&quot;forced-color-adjust: none; border-color: rgb(0, 0, 0); color: rgb(204, 204, 204); font-family: Menlo, Monaco, &amp;quot;Courier New&amp;quot;, monospace; font-size: 12px; font-style: normal; font-variant-ligatures: normal; font-variant-caps: normal; font-weight: 400; letter-spacing: normal; orphans: 2; text-align: left; text-indent: 0px; text-transform: none; widows: 2; word-spacing: 0px; -webkit-text-stroke-width: 0px; white-space: pre; text-decoration-thickness: initial; text-decoration-style: initial; text-decoration-color: initial;&quot;&gt;&lt;span style=&quot;forced-color-adjust: none; border-color: rgb(0, 0, 0); color: rgb(220, 220, 170);&quot;&gt;setAgency&lt;/span&gt;(&lt;span style=&quot;forced-color-adjust: none; border-color: rgb(0, 0, 0); color: rgb(78, 201, 176);&quot;&gt;string&lt;/span&gt; &lt;span style=&quot;forced-color-adjust: none; border-color: rgb(0, 0, 0); color: rgb(156, 220, 254);&quot;&gt;agencyParam&lt;/span&gt;): &lt;span style=&quot;background-color: initial; color: rgb(86, 156, 214);&quot;&gt;virtual&lt;/span&gt;&lt;span style=&quot;background-color: initial;&quot;&gt; &lt;/span&gt;&lt;span style=&quot;background-color: initial; color: rgb(86, 156, 214);&quot;&gt;void&lt;/span&gt;&lt;span style=&quot;background-color: initial;&quot;&gt; &lt;/span&gt;&lt;/div&gt;&lt;div style=&quot;forced-color-adjust: none; border-color: rgb(0, 0, 0); color: rgb(204, 204, 204); font-family: Menlo, Monaco, &amp;quot;Courier New&amp;quot;, monospace; font-size: 12px; font-style: normal; font-variant-ligatures: normal; font-variant-caps: normal; font-weight: 400; letter-spacing: normal; orphans: 2; text-align: left; text-indent: 0px; text-transform: none; widows: 2; word-spacing: 0px; -webkit-text-stroke-width: 0px; white-space: pre; text-decoration-thickness: initial; text-decoration-style: initial; text-decoration-color: initial;&quot;&gt;&lt;span style=&quot;forced-color-adjust: none; border-color: rgb(0, 0, 0); color: rgb(220, 220, 170);&quot;&gt;getAgency&lt;/span&gt;(): &lt;span style=&quot;background-color: initial;&quot;&gt; &lt;/span&gt;&lt;span style=&quot;background-color: initial; color: rgb(86, 156, 214);&quot;&gt;virtual&lt;/span&gt;&lt;span style=&quot;background-color: initial;&quot;&gt; &lt;/span&gt;&lt;span style=&quot;background-color: initial; color: rgb(78, 201, 176);&quot;&gt;string&lt;/span&gt;&lt;span style=&quot;background-color: initial;&quot;&gt; &lt;/span&gt;&lt;/div&gt;&lt;div style=&quot;forced-color-adjust: none; border-color: rgb(0, 0, 0); color: rgb(204, 204, 204); font-family: Menlo, Monaco, &amp;quot;Courier New&amp;quot;, monospace; font-size: 12px; font-style: normal; font-variant-ligatures: normal; font-variant-caps: normal; font-weight: 400; letter-spacing: normal; orphans: 2; text-align: left; text-indent: 0px; text-transform: none; widows: 2; word-spacing: 0px; -webkit-text-stroke-width: 0px; white-space: pre; text-decoration-thickness: initial; text-decoration-style: initial; text-decoration-color: initial;&quot;&gt;&lt;span style=&quot;forced-color-adjust: none; border-color: rgb(0, 0, 0); color: rgb(106, 153, 85);&quot;&gt;/* Intern */&lt;/span&gt;&lt;/div&gt;&lt;div style=&quot;forced-color-adjust: none; border-color: rgb(0, 0, 0); color: rgb(204, 204, 204); font-family: Menlo, Monaco, &amp;quot;Courier New&amp;quot;, monospace; font-size: 12px; font-style: normal; font-variant-ligatures: normal; font-variant-caps: normal; font-weight: 400; letter-spacing: normal; orphans: 2; text-align: left; text-indent: 0px; text-transform: none; widows: 2; word-spacing: 0px; -webkit-text-stroke-width: 0px; white-space: pre; text-decoration-thickness: initial; text-decoration-style: initial; text-decoration-color: initial;&quot;&gt;&lt;span style=&quot;background-color: initial; color: rgb(220, 220, 170);&quot;&gt;setCollege&lt;/span&gt;&lt;span style=&quot;background-color: initial;&quot;&gt;(&lt;/span&gt;&lt;span style=&quot;background-color: initial; color: rgb(78, 201, 176);&quot;&gt;string&lt;/span&gt;&lt;span style=&quot;background-color: initial;&quot;&gt; &lt;/span&gt;&lt;span style=&quot;background-color: initial; color: rgb(156, 220, 254);&quot;&gt;clgParam&lt;/span&gt;&lt;span style=&quot;background-color: initial;&quot;&gt;): &lt;/span&gt;&lt;span style=&quot;background-color: initial; color: rgb(86, 156, 214);&quot;&gt;virtual&lt;/span&gt;&lt;span style=&quot;background-color: initial;&quot;&gt; &lt;/span&gt;&lt;span style=&quot;background-color: initial; color: rgb(86, 156, 214);&quot;&gt;void&lt;/span&gt;&lt;span style=&quot;background-color: initial;&quot;&gt; &lt;/span&gt;&lt;/div&gt;&lt;div style=&quot;forced-color-adjust: none; border-color: rgb(0, 0, 0); color: rgb(204, 204, 204); font-family: Menlo, Monaco, &amp;quot;Courier New&amp;quot;, monospace; font-size: 12px; font-style: normal; font-variant-ligatures: normal; font-variant-caps: normal; font-weight: 400; letter-spacing: normal; orphans: 2; text-align: left; text-indent: 0px; text-transform: none; widows: 2; word-spacing: 0px; -webkit-text-stroke-width: 0px; white-space: pre; text-decoration-thickness: initial; text-decoration-style: initial; text-decoration-color: initial;&quot;&gt;&lt;span style=&quot;forced-color-adjust: none; border-color: rgb(0, 0, 0); color: rgb(220, 220, 170);&quot;&gt;setBranch&lt;/span&gt;(&lt;span style=&quot;forced-color-adjust: none; border-color: rgb(0, 0, 0); color: rgb(78, 201, 176);&quot;&gt;string&lt;/span&gt; &lt;span style=&quot;forced-color-adjust: none; border-color: rgb(0, 0, 0); color: rgb(156, 220, 254);&quot;&gt;branchParam&lt;/span&gt;): &lt;span style=&quot;background-color: initial;&quot;&gt; &lt;/span&gt;&lt;span style=&quot;background-color: initial; color: rgb(86, 156, 214);&quot;&gt;virtual&lt;/span&gt;&lt;span style=&quot;background-color: initial;&quot;&gt; &lt;/span&gt;&lt;span style=&quot;background-color: initial; color: rgb(86, 156, 214);&quot;&gt;void&lt;/span&gt;&lt;span style=&quot;background-color: initial;&quot;&gt; &lt;/span&gt;&lt;/div&gt;&lt;div style=&quot;forced-color-adjust: none; border-color: rgb(0, 0, 0); color: rgb(204, 204, 204); font-family: Menlo, Monaco, &amp;quot;Courier New&amp;quot;, monospace; font-size: 12px; font-style: normal; font-variant-ligatures: normal; font-variant-caps: normal; font-weight: 400; letter-spacing: normal; orphans: 2; text-align: left; text-indent: 0px; text-transform: none; widows: 2; word-spacing: 0px; -webkit-text-stroke-width: 0px; white-space: pre; text-decoration-thickness: initial; text-decoration-style: initial; text-decoration-color: initial;&quot;&gt;&lt;span style=&quot;forced-color-adjust: none; border-color: rgb(0, 0, 0); color: rgb(220, 220, 170);&quot;&gt;getCollege&lt;/span&gt;(): &lt;span style=&quot;background-color: initial; color: rgb(86, 156, 214);&quot;&gt;virtual&lt;/span&gt;&lt;span style=&quot;background-color: initial;&quot;&gt; &lt;/span&gt;&lt;span style=&quot;background-color: initial; color: rgb(78, 201, 176);&quot;&gt;string&lt;/span&gt;&lt;span style=&quot;background-color: initial;&quot;&gt; &lt;/span&gt;&lt;/div&gt;&lt;div style=&quot;forced-color-adjust: none; border-color: rgb(0, 0, 0); color: rgb(204, 204, 204); font-family: Menlo, Monaco, &amp;quot;Courier New&amp;quot;, monospace; font-size: 12px; font-style: normal; font-variant-ligatures: normal; font-variant-caps: normal; font-weight: 400; letter-spacing: normal; orphans: 2; text-align: left; text-indent: 0px; text-transform: none; widows: 2; word-spacing: 0px; -webkit-text-stroke-width: 0px; white-space: pre; text-decoration-thickness: initial; text-decoration-style: initial; text-decoration-color: initial;&quot;&gt;&lt;span style=&quot;forced-color-adjust: none; border-color: rgb(0, 0, 0); color: rgb(220, 220, 170);&quot;&gt;getBranch&lt;/span&gt;(): &lt;span style=&quot;background-color: initial; color: rgb(86, 156, 214);&quot;&gt;virtual&lt;/span&gt;&lt;span style=&quot;background-color: initial;&quot;&gt; &lt;/span&gt;&lt;span style=&quot;background-color: initial; color: rgb(78, 201, 176);&quot;&gt;string&lt;/span&gt;&lt;span style=&quot;background-color: initial;&quot;&gt; &lt;/span&gt;&lt;/div&gt;" style="text;strokeColor=none;fillColor=none;align=left;verticalAlign=top;spacingLeft=4;spacingRight=4;overflow=hidden;rotatable=0;points=[[0,0.5],[1,0.5]];portConstraint=eastwest;whiteSpace=wrap;html=1;" vertex="1" parent="IBJ0tuOsSYh19sOJ16CG-8">
          <mxGeometry y="188" width="380" height="372" as="geometry" />
        </mxCell>
        <mxCell id="IBJ0tuOsSYh19sOJ16CG-13" value="Extends" style="endArrow=block;endSize=16;endFill=0;html=1;rounded=0;" edge="1" parent="WIyWlLk6GJQsqaUBKTNV-1" target="IBJ0tuOsSYh19sOJ16CG-14">
          <mxGeometry width="160" relative="1" as="geometry">
            <mxPoint x="-396" y="890" as="sourcePoint" />
            <mxPoint x="-396.5" y="710" as="targetPoint" />
          </mxGeometry>
        </mxCell>
        <mxCell id="IBJ0tuOsSYh19sOJ16CG-14" value="" style="line;strokeWidth=1;fillColor=none;align=left;verticalAlign=middle;spacingTop=-1;spacingLeft=3;spacingRight=3;rotatable=0;labelPosition=right;points=[];portConstraint=eastwest;strokeColor=inherit;" vertex="1" parent="WIyWlLk6GJQsqaUBKTNV-1">
          <mxGeometry x="-416.5" y="706" width="40" height="8" as="geometry" />
        </mxCell>
        <mxCell id="IBJ0tuOsSYh19sOJ16CG-15" value="" style="line;strokeWidth=1;fillColor=none;align=left;verticalAlign=middle;spacingTop=-1;spacingLeft=3;spacingRight=3;rotatable=0;labelPosition=right;points=[];portConstraint=eastwest;strokeColor=inherit;" vertex="1" parent="WIyWlLk6GJQsqaUBKTNV-1">
          <mxGeometry x="-756" y="800" width="750" height="8" as="geometry" />
        </mxCell>
        <mxCell id="IBJ0tuOsSYh19sOJ16CG-16" value="&lt;div style=&quot;color: rgb(204, 204, 204); background-color: rgb(31, 31, 31); font-family: Menlo, Monaco, &amp;quot;Courier New&amp;quot;, monospace; font-weight: normal; line-height: 18px; white-space: pre;&quot;&gt;&lt;span style=&quot;color: #dcdcaa;&quot;&gt;XyzFullTimeEmployee&lt;/span&gt;&lt;/div&gt;" style="swimlane;fontStyle=1;align=center;verticalAlign=top;childLayout=stackLayout;horizontal=1;startSize=26;horizontalStack=0;resizeParent=1;resizeParentMax=0;resizeLast=0;collapsible=1;marginBottom=0;whiteSpace=wrap;html=1;" vertex="1" parent="WIyWlLk6GJQsqaUBKTNV-1">
          <mxGeometry x="-886" y="900" width="300" height="190" as="geometry" />
        </mxCell>
        <mxCell id="IBJ0tuOsSYh19sOJ16CG-17" value="&lt;div style=&quot;background-color: rgb(31, 31, 31); font-family: Menlo, Monaco, &amp;quot;Courier New&amp;quot;, monospace; line-height: 18px; white-space: pre;&quot;&gt;&lt;div style=&quot;&quot;&gt;&lt;span style=&quot;color: rgb(106, 153, 85);&quot;&gt;/* Number of Leaves */&lt;/span&gt;&lt;span style=&quot;color: rgb(156, 220, 254);&quot;&gt;&lt;br&gt;&lt;/span&gt;&lt;/div&gt;&lt;div style=&quot;&quot;&gt;&lt;span style=&quot;color: rgb(156, 220, 254);&quot;&gt;mEmpNOL&lt;/span&gt;&lt;font color=&quot;#cccccc&quot;&gt;:&lt;/font&gt;&lt;span style=&quot;color: rgb(106, 153, 85);&quot;&gt; &lt;/span&gt;&lt;span style=&quot;color: rgb(86, 156, 214);&quot;&gt;int&lt;/span&gt;&lt;/div&gt;&lt;div style=&quot;color: rgb(204, 204, 204);&quot;&gt;&lt;span style=&quot;color: #9cdcfe;&quot;&gt;mNextEmproll: &lt;/span&gt;&lt;span style=&quot;color: rgb(86, 156, 214);&quot;&gt;static&lt;/span&gt; &lt;span style=&quot;color: rgb(86, 156, 214);&quot;&gt;long&lt;/span&gt; &lt;/div&gt;&lt;div style=&quot;color: rgb(204, 204, 204);&quot;&gt;   &lt;br&gt;&lt;/div&gt;&lt;/div&gt;" style="text;strokeColor=none;fillColor=none;align=left;verticalAlign=top;spacingLeft=4;spacingRight=4;overflow=hidden;rotatable=0;points=[[0,0.5],[1,0.5]];portConstraint=eastwest;whiteSpace=wrap;html=1;" vertex="1" parent="IBJ0tuOsSYh19sOJ16CG-16">
          <mxGeometry y="26" width="300" height="84" as="geometry" />
        </mxCell>
        <mxCell id="IBJ0tuOsSYh19sOJ16CG-18" value="" style="line;strokeWidth=1;fillColor=none;align=left;verticalAlign=middle;spacingTop=-1;spacingLeft=3;spacingRight=3;rotatable=0;labelPosition=right;points=[];portConstraint=eastwest;strokeColor=inherit;" vertex="1" parent="IBJ0tuOsSYh19sOJ16CG-16">
          <mxGeometry y="110" width="300" height="8" as="geometry" />
        </mxCell>
        <mxCell id="IBJ0tuOsSYh19sOJ16CG-19" value="&lt;div style=&quot;font-family: Menlo, Monaco, &amp;quot;Courier New&amp;quot;, monospace; white-space: pre; color: rgb(204, 204, 204);&quot;&gt;&lt;span style=&quot;color: rgb(220, 220, 170);&quot;&gt;setNoOfLeaves&lt;/span&gt;(&lt;span style=&quot;color: rgb(86, 156, 214);&quot;&gt;int&lt;/span&gt; &lt;span style=&quot;color: rgb(156, 220, 254);&quot;&gt;nolParam&lt;/span&gt;):&lt;span style=&quot;color: rgb(86, 156, 214); background-color: initial;&quot;&gt; void&lt;/span&gt;&lt;/div&gt;&lt;div style=&quot;font-family: Menlo, Monaco, &amp;quot;Courier New&amp;quot;, monospace; white-space: pre; color: rgb(204, 204, 204);&quot;&gt;&lt;span style=&quot;color: rgb(220, 220, 170);&quot;&gt;getNoOfLeaves&lt;/span&gt;(): &lt;span style=&quot;color: rgb(86, 156, 214); background-color: initial;&quot;&gt;int&lt;/span&gt;&lt;/div&gt;&lt;div style=&quot;font-family: Menlo, Monaco, &amp;quot;Courier New&amp;quot;, monospace; white-space: pre; color: rgb(204, 204, 204);&quot;&gt;&lt;div style=&quot;background-color: rgb(31, 31, 31); line-height: 18px;&quot;&gt;&lt;span style=&quot;color: #dcdcaa;&quot;&gt;print&lt;/span&gt;(&lt;span style=&quot;color: #4ec9b0;&quot;&gt;ostream&lt;/span&gt;&lt;span style=&quot;color: #569cd6;&quot;&gt;&amp;amp;&lt;/span&gt; &lt;span style=&quot;color: #9cdcfe;&quot;&gt;ostreamDataParam&lt;/span&gt;): &lt;span style=&quot;color: rgb(86, 156, 214);&quot;&gt;void&lt;/span&gt;&lt;/div&gt;&lt;/div&gt;" style="text;strokeColor=none;fillColor=none;align=left;verticalAlign=top;spacingLeft=4;spacingRight=4;overflow=hidden;rotatable=0;points=[[0,0.5],[1,0.5]];portConstraint=eastwest;whiteSpace=wrap;html=1;" vertex="1" parent="IBJ0tuOsSYh19sOJ16CG-16">
          <mxGeometry y="118" width="300" height="72" as="geometry" />
        </mxCell>
        <mxCell id="IBJ0tuOsSYh19sOJ16CG-20" value="&lt;div style=&quot;color: rgb(204, 204, 204); background-color: rgb(31, 31, 31); font-family: Menlo, Monaco, &amp;quot;Courier New&amp;quot;, monospace; font-weight: normal; line-height: 18px; white-space: pre;&quot;&gt;&lt;div style=&quot;line-height: 18px;&quot;&gt;&lt;span style=&quot;color: #dcdcaa;&quot;&gt;XyzContractorEmployee&lt;/span&gt;&lt;/div&gt;&lt;/div&gt;" style="swimlane;fontStyle=1;align=center;verticalAlign=top;childLayout=stackLayout;horizontal=1;startSize=26;horizontalStack=0;resizeParent=1;resizeParentMax=0;resizeLast=0;collapsible=1;marginBottom=0;whiteSpace=wrap;html=1;" vertex="1" parent="WIyWlLk6GJQsqaUBKTNV-1">
          <mxGeometry x="-536" y="900" width="305" height="190" as="geometry" />
        </mxCell>
        <mxCell id="IBJ0tuOsSYh19sOJ16CG-21" value="&lt;div style=&quot;background-color: rgb(31, 31, 31); font-family: Menlo, Monaco, &amp;quot;Courier New&amp;quot;, monospace; line-height: 18px; white-space: pre;&quot;&gt;&lt;div style=&quot;&quot;&gt;&lt;div style=&quot;color: rgb(204, 204, 204); line-height: 18px;&quot;&gt;&lt;div&gt;&lt;span style=&quot;color: #9cdcfe;&quot;&gt;mEmpAgency: &lt;/span&gt;&lt;span style=&quot;color: rgb(78, 201, 176);&quot;&gt;string&lt;/span&gt;&lt;/div&gt;&lt;div&gt;&lt;span style=&quot;color: #9cdcfe;&quot;&gt;mNextEmproll: &lt;/span&gt;&lt;span style=&quot;color: rgb(86, 156, 214);&quot;&gt;static&lt;/span&gt; &lt;span style=&quot;color: rgb(86, 156, 214);&quot;&gt;long&lt;/span&gt; &lt;/div&gt;&lt;/div&gt;&lt;/div&gt;&lt;/div&gt;" style="text;strokeColor=none;fillColor=none;align=left;verticalAlign=top;spacingLeft=4;spacingRight=4;overflow=hidden;rotatable=0;points=[[0,0.5],[1,0.5]];portConstraint=eastwest;whiteSpace=wrap;html=1;" vertex="1" parent="IBJ0tuOsSYh19sOJ16CG-20">
          <mxGeometry y="26" width="305" height="84" as="geometry" />
        </mxCell>
        <mxCell id="IBJ0tuOsSYh19sOJ16CG-22" value="" style="line;strokeWidth=1;fillColor=none;align=left;verticalAlign=middle;spacingTop=-1;spacingLeft=3;spacingRight=3;rotatable=0;labelPosition=right;points=[];portConstraint=eastwest;strokeColor=inherit;" vertex="1" parent="IBJ0tuOsSYh19sOJ16CG-20">
          <mxGeometry y="110" width="305" height="8" as="geometry" />
        </mxCell>
        <mxCell id="IBJ0tuOsSYh19sOJ16CG-23" value="&lt;div style=&quot;font-family: Menlo, Monaco, &amp;quot;Courier New&amp;quot;, monospace; white-space: pre; color: rgb(204, 204, 204);&quot;&gt;&lt;div style=&quot;background-color: rgb(31, 31, 31); line-height: 18px;&quot;&gt;&lt;div&gt;&lt;span style=&quot;color: #dcdcaa;&quot;&gt;setAgency&lt;/span&gt;(&lt;span style=&quot;color: #4ec9b0;&quot;&gt;string&lt;/span&gt; &lt;span style=&quot;color: #9cdcfe;&quot;&gt;agencyParam&lt;/span&gt;): &lt;span style=&quot;color: rgb(86, 156, 214);&quot;&gt;void&lt;/span&gt;&lt;/div&gt;&lt;div&gt;&lt;span style=&quot;color: #dcdcaa;&quot;&gt;getAgency&lt;/span&gt;(): &lt;span style=&quot;color: rgb(78, 201, 176);&quot;&gt;string&lt;/span&gt;&lt;/div&gt;&lt;/div&gt;&lt;/div&gt;&lt;div style=&quot;font-family: Menlo, Monaco, &amp;quot;Courier New&amp;quot;, monospace; white-space: pre; color: rgb(204, 204, 204);&quot;&gt;&lt;div style=&quot;background-color: rgb(31, 31, 31); line-height: 18px;&quot;&gt;&lt;span style=&quot;color: #dcdcaa;&quot;&gt;print&lt;/span&gt;(&lt;span style=&quot;color: #4ec9b0;&quot;&gt;ostream&lt;/span&gt;&lt;span style=&quot;color: #569cd6;&quot;&gt;&amp;amp;&lt;/span&gt; &lt;span style=&quot;color: #9cdcfe;&quot;&gt;ostreamDataParam&lt;/span&gt;): &lt;span style=&quot;color: rgb(86, 156, 214);&quot;&gt;void&lt;/span&gt;&lt;/div&gt;&lt;/div&gt;" style="text;strokeColor=none;fillColor=none;align=left;verticalAlign=top;spacingLeft=4;spacingRight=4;overflow=hidden;rotatable=0;points=[[0,0.5],[1,0.5]];portConstraint=eastwest;whiteSpace=wrap;html=1;" vertex="1" parent="IBJ0tuOsSYh19sOJ16CG-20">
          <mxGeometry y="118" width="305" height="72" as="geometry" />
        </mxCell>
        <mxCell id="IBJ0tuOsSYh19sOJ16CG-26" value="&lt;div style=&quot;color: rgb(204, 204, 204); background-color: rgb(31, 31, 31); font-family: Menlo, Monaco, &amp;quot;Courier New&amp;quot;, monospace; font-weight: normal; line-height: 18px; white-space: pre;&quot;&gt;&lt;div style=&quot;line-height: 18px;&quot;&gt;&lt;div style=&quot;line-height: 18px;&quot;&gt;&lt;span style=&quot;color: #dcdcaa;&quot;&gt;XyzInternEmloyee&lt;/span&gt;&lt;/div&gt;&lt;/div&gt;&lt;/div&gt;" style="swimlane;fontStyle=1;align=center;verticalAlign=top;childLayout=stackLayout;horizontal=1;startSize=26;horizontalStack=0;resizeParent=1;resizeParentMax=0;resizeLast=0;collapsible=1;marginBottom=0;whiteSpace=wrap;html=1;" vertex="1" parent="WIyWlLk6GJQsqaUBKTNV-1">
          <mxGeometry x="-186" y="900" width="320" height="220" as="geometry" />
        </mxCell>
        <mxCell id="IBJ0tuOsSYh19sOJ16CG-27" value="&lt;div style=&quot;background-color: rgb(31, 31, 31); font-family: Menlo, Monaco, &amp;quot;Courier New&amp;quot;, monospace; line-height: 18px; white-space: pre;&quot;&gt;&lt;div style=&quot;&quot;&gt;&lt;div style=&quot;color: rgb(204, 204, 204); line-height: 18px;&quot;&gt;&lt;div&gt;&lt;div style=&quot;line-height: 18px;&quot;&gt;&lt;div&gt;&lt;span style=&quot;color: #9cdcfe;&quot;&gt;mEmpCollege: &lt;/span&gt;&lt;span style=&quot;color: rgb(78, 201, 176);&quot;&gt;string&lt;/span&gt;&lt;/div&gt;&lt;div&gt;&lt;span style=&quot;color: #9cdcfe;&quot;&gt;mEmpBranch: &lt;/span&gt;&lt;span style=&quot;color: rgb(78, 201, 176);&quot;&gt;string&lt;/span&gt;&lt;/div&gt;&lt;/div&gt;&lt;/div&gt;&lt;div&gt;&lt;span style=&quot;color: #9cdcfe;&quot;&gt;mNextEmproll: &lt;/span&gt;&lt;span style=&quot;color: rgb(86, 156, 214);&quot;&gt;static&lt;/span&gt; &lt;span style=&quot;color: rgb(86, 156, 214);&quot;&gt;long&lt;/span&gt; &lt;/div&gt;&lt;/div&gt;&lt;/div&gt;&lt;/div&gt;" style="text;strokeColor=none;fillColor=none;align=left;verticalAlign=top;spacingLeft=4;spacingRight=4;overflow=hidden;rotatable=0;points=[[0,0.5],[1,0.5]];portConstraint=eastwest;whiteSpace=wrap;html=1;" vertex="1" parent="IBJ0tuOsSYh19sOJ16CG-26">
          <mxGeometry y="26" width="320" height="84" as="geometry" />
        </mxCell>
        <mxCell id="IBJ0tuOsSYh19sOJ16CG-28" value="" style="line;strokeWidth=1;fillColor=none;align=left;verticalAlign=middle;spacingTop=-1;spacingLeft=3;spacingRight=3;rotatable=0;labelPosition=right;points=[];portConstraint=eastwest;strokeColor=inherit;" vertex="1" parent="IBJ0tuOsSYh19sOJ16CG-26">
          <mxGeometry y="110" width="320" height="8" as="geometry" />
        </mxCell>
        <mxCell id="IBJ0tuOsSYh19sOJ16CG-29" value="&lt;div style=&quot;font-family: Menlo, Monaco, &amp;quot;Courier New&amp;quot;, monospace; white-space: pre; color: rgb(204, 204, 204);&quot;&gt;&lt;div style=&quot;background-color: rgb(31, 31, 31); line-height: 18px;&quot;&gt;&lt;div style=&quot;line-height: 18px;&quot;&gt;&lt;div&gt;&lt;span style=&quot;color: #dcdcaa;&quot;&gt;setCollege&lt;/span&gt;(&lt;span style=&quot;color: #4ec9b0;&quot;&gt;string&lt;/span&gt; &lt;span style=&quot;color: #9cdcfe;&quot;&gt;clgParam&lt;/span&gt;): &lt;span style=&quot;color: rgb(86, 156, 214);&quot;&gt;void&lt;/span&gt;&lt;/div&gt;&lt;div&gt;&lt;span style=&quot;color: #dcdcaa;&quot;&gt;setBranch&lt;/span&gt;(&lt;span style=&quot;color: #4ec9b0;&quot;&gt;string&lt;/span&gt; &lt;span style=&quot;color: #9cdcfe;&quot;&gt;branchParam&lt;/span&gt;): &lt;span style=&quot;color: rgb(86, 156, 214);&quot;&gt;void&lt;/span&gt;&lt;/div&gt;&lt;div&gt;&lt;span style=&quot;color: #dcdcaa;&quot;&gt;getCollege&lt;/span&gt;(): &lt;span style=&quot;color: rgb(78, 201, 176);&quot;&gt;string&lt;/span&gt;&lt;/div&gt;&lt;div&gt;&lt;span style=&quot;color: #dcdcaa;&quot;&gt;getBranch&lt;/span&gt;(): &lt;span style=&quot;color: rgb(78, 201, 176);&quot;&gt;string&lt;/span&gt;&lt;/div&gt;&lt;/div&gt;&lt;/div&gt;&lt;/div&gt;&lt;div style=&quot;font-family: Menlo, Monaco, &amp;quot;Courier New&amp;quot;, monospace; white-space: pre; color: rgb(204, 204, 204);&quot;&gt;&lt;div style=&quot;background-color: rgb(31, 31, 31); line-height: 18px;&quot;&gt;&lt;span style=&quot;color: #dcdcaa;&quot;&gt;print&lt;/span&gt;(&lt;span style=&quot;color: #4ec9b0;&quot;&gt;ostream&lt;/span&gt;&lt;span style=&quot;color: #569cd6;&quot;&gt;&amp;amp;&lt;/span&gt; &lt;span style=&quot;color: #9cdcfe;&quot;&gt;ostreamDataParam&lt;/span&gt;): &lt;span style=&quot;color: rgb(86, 156, 214);&quot;&gt;void&lt;/span&gt;&lt;/div&gt;&lt;/div&gt;" style="text;strokeColor=none;fillColor=none;align=left;verticalAlign=top;spacingLeft=4;spacingRight=4;overflow=hidden;rotatable=0;points=[[0,0.5],[1,0.5]];portConstraint=eastwest;whiteSpace=wrap;html=1;" vertex="1" parent="IBJ0tuOsSYh19sOJ16CG-26">
          <mxGeometry y="118" width="320" height="102" as="geometry" />
        </mxCell>
        <mxCell id="IBJ0tuOsSYh19sOJ16CG-37" value="XyzEmployeeIF" style="html=1;whiteSpace=wrap;" vertex="1" parent="WIyWlLk6GJQsqaUBKTNV-1">
          <mxGeometry x="-591" width="390" height="80" as="geometry" />
        </mxCell>
        <mxCell id="IBJ0tuOsSYh19sOJ16CG-43" value="Extends" style="endArrow=block;endSize=16;endFill=0;html=1;rounded=0;" edge="1" parent="WIyWlLk6GJQsqaUBKTNV-1">
          <mxGeometry width="160" relative="1" as="geometry">
            <mxPoint x="-756" y="900" as="sourcePoint" />
            <mxPoint x="-756" y="810" as="targetPoint" />
          </mxGeometry>
        </mxCell>
        <mxCell id="IBJ0tuOsSYh19sOJ16CG-45" value="Extends" style="endArrow=block;endSize=16;endFill=0;html=1;rounded=0;" edge="1" parent="WIyWlLk6GJQsqaUBKTNV-1">
          <mxGeometry width="160" relative="1" as="geometry">
            <mxPoint x="-26.629999999999995" y="890" as="sourcePoint" />
            <mxPoint x="-26.629999999999995" y="800" as="targetPoint" />
          </mxGeometry>
        </mxCell>
        <mxCell id="IBJ0tuOsSYh19sOJ16CG-46" value="Extends" style="endArrow=block;endSize=16;endFill=0;html=1;rounded=0;exitX=0.532;exitY=0.006;exitDx=0;exitDy=0;exitPerimeter=0;" edge="1" parent="WIyWlLk6GJQsqaUBKTNV-1" source="IBJ0tuOsSYh19sOJ16CG-8">
          <mxGeometry width="160" relative="1" as="geometry">
            <mxPoint x="-386" y="150" as="sourcePoint" />
            <mxPoint x="-383.81" y="70" as="targetPoint" />
            <Array as="points">
              <mxPoint x="-383.81" y="110" />
            </Array>
          </mxGeometry>
        </mxCell>
        <mxCell id="IBJ0tuOsSYh19sOJ16CG-47" value="Deque" style="swimlane;fontStyle=1;align=center;verticalAlign=top;childLayout=stackLayout;horizontal=1;startSize=26;horizontalStack=0;resizeParent=1;resizeParentMax=0;resizeLast=0;collapsible=1;marginBottom=0;whiteSpace=wrap;html=1;" vertex="1" parent="WIyWlLk6GJQsqaUBKTNV-1">
          <mxGeometry x="-685" y="-860" width="530" height="450" as="geometry" />
        </mxCell>
        <mxCell id="IBJ0tuOsSYh19sOJ16CG-49" value="" style="line;strokeWidth=1;fillColor=none;align=left;verticalAlign=middle;spacingTop=-1;spacingLeft=3;spacingRight=3;rotatable=0;labelPosition=right;points=[];portConstraint=eastwest;strokeColor=inherit;" vertex="1" parent="IBJ0tuOsSYh19sOJ16CG-47">
          <mxGeometry y="26" width="530" height="8" as="geometry" />
        </mxCell>
        <mxCell id="IBJ0tuOsSYh19sOJ16CG-48" value="&lt;div style=&quot;forced-color-adjust: none; border-color: rgb(0, 0, 0); color: rgb(204, 204, 204); font-family: Menlo, Monaco, &amp;quot;Courier New&amp;quot;, monospace; font-size: 12px; font-style: normal; font-variant-ligatures: normal; font-variant-caps: normal; font-weight: 400; letter-spacing: normal; orphans: 2; text-align: left; text-indent: 0px; text-transform: none; widows: 2; word-spacing: 0px; -webkit-text-stroke-width: 0px; white-space: pre; text-decoration-thickness: initial; text-decoration-style: initial; text-decoration-color: initial;&quot;&gt;&lt;span style=&quot;forced-color-adjust: none; border-color: rgb(0, 0, 0); color: rgb(156, 220, 254);&quot;&gt;mFrontPtr: &lt;/span&gt;&lt;span style=&quot;background-color: initial; color: rgb(78, 201, 176);&quot;&gt;Node&lt;/span&gt;&lt;span style=&quot;background-color: initial; color: rgb(212, 212, 212);&quot;&gt;&amp;lt;&lt;/span&gt;&lt;span style=&quot;background-color: initial; color: rgb(78, 201, 176);&quot;&gt;TN&lt;/span&gt;&lt;span style=&quot;background-color: initial; color: rgb(212, 212, 212);&quot;&gt;&amp;gt; *&lt;/span&gt;&lt;/div&gt;&lt;div style=&quot;forced-color-adjust: none; border-color: rgb(0, 0, 0); color: rgb(204, 204, 204); font-family: Menlo, Monaco, &amp;quot;Courier New&amp;quot;, monospace; font-size: 12px; font-style: normal; font-variant-ligatures: normal; font-variant-caps: normal; font-weight: 400; letter-spacing: normal; orphans: 2; text-align: left; text-indent: 0px; text-transform: none; widows: 2; word-spacing: 0px; -webkit-text-stroke-width: 0px; white-space: pre; text-decoration-thickness: initial; text-decoration-style: initial; text-decoration-color: initial;&quot;&gt;&lt;span style=&quot;forced-color-adjust: none; border-color: rgb(0, 0, 0); color: rgb(156, 220, 254);&quot;&gt;mRearPtr: &lt;/span&gt;&lt;span style=&quot;background-color: initial; color: rgb(78, 201, 176);&quot;&gt;Node&lt;/span&gt;&lt;span style=&quot;background-color: initial; color: rgb(212, 212, 212);&quot;&gt;&amp;lt;&lt;/span&gt;&lt;span style=&quot;background-color: initial; color: rgb(78, 201, 176);&quot;&gt;TN&lt;/span&gt;&lt;span style=&quot;background-color: initial; color: rgb(212, 212, 212);&quot;&gt;&amp;gt; *&lt;/span&gt;&lt;span style=&quot;background-color: initial;&quot;&gt; &lt;/span&gt;&lt;/div&gt;&lt;div style=&quot;forced-color-adjust: none; border-color: rgb(0, 0, 0); color: rgb(204, 204, 204); font-family: Menlo, Monaco, &amp;quot;Courier New&amp;quot;, monospace; font-size: 12px; font-style: normal; font-variant-ligatures: normal; font-variant-caps: normal; font-weight: 400; letter-spacing: normal; orphans: 2; text-align: left; text-indent: 0px; text-transform: none; widows: 2; word-spacing: 0px; -webkit-text-stroke-width: 0px; white-space: pre; text-decoration-thickness: initial; text-decoration-style: initial; text-decoration-color: initial;&quot;&gt;&lt;span style=&quot;forced-color-adjust: none; border-color: rgb(0, 0, 0); color: rgb(156, 220, 254);&quot;&gt;mCurrentSize: &lt;/span&gt;&lt;span style=&quot;color: rgb(86, 156, 214); background-color: initial;&quot;&gt;long&lt;/span&gt;&lt;/div&gt;" style="text;strokeColor=none;fillColor=none;align=left;verticalAlign=top;spacingLeft=4;spacingRight=4;overflow=hidden;rotatable=0;points=[[0,0.5],[1,0.5]];portConstraint=eastwest;whiteSpace=wrap;html=1;" vertex="1" parent="IBJ0tuOsSYh19sOJ16CG-47">
          <mxGeometry y="34" width="530" height="66" as="geometry" />
        </mxCell>
        <mxCell id="IBJ0tuOsSYh19sOJ16CG-50" value="&lt;div style=&quot;color: rgb(204, 204, 204); font-family: Menlo, Monaco, &amp;quot;Courier New&amp;quot;, monospace; white-space: pre;&quot;&gt;&lt;span style=&quot;color: rgb(106, 153, 85);&quot;&gt;/* Cheking status of the queue*/&lt;/span&gt;&lt;/div&gt;&lt;div style=&quot;color: rgb(204, 204, 204); font-family: Menlo, Monaco, &amp;quot;Courier New&amp;quot;, monospace; white-space: pre;&quot;&gt;&lt;span style=&quot;color: rgb(220, 220, 170);&quot;&gt;empty&lt;/span&gt;():&lt;span style=&quot;color: rgb(86, 156, 214); background-color: initial;&quot;&gt; bool&lt;/span&gt;&lt;/div&gt;&lt;div style=&quot;color: rgb(204, 204, 204); font-family: Menlo, Monaco, &amp;quot;Courier New&amp;quot;, monospace; white-space: pre;&quot;&gt;&lt;span style=&quot;color: rgb(220, 220, 170);&quot;&gt;size&lt;/span&gt;(): &lt;span style=&quot;color: rgb(86, 156, 214); background-color: initial;&quot;&gt;long&lt;/span&gt;&lt;/div&gt;&lt;div style=&quot;color: rgb(204, 204, 204); font-family: Menlo, Monaco, &amp;quot;Courier New&amp;quot;, monospace; white-space: pre;&quot;&gt;&lt;span style=&quot;color: rgb(220, 220, 170);&quot;&gt;clear&lt;/span&gt;(): &lt;span style=&quot;color: rgb(86, 156, 214); background-color: initial;&quot;&gt;void&lt;/span&gt;&lt;/div&gt;&lt;div style=&quot;color: rgb(204, 204, 204); font-family: Menlo, Monaco, &amp;quot;Courier New&amp;quot;, monospace; white-space: pre;&quot;&gt;    &lt;/div&gt;&lt;div style=&quot;color: rgb(204, 204, 204); font-family: Menlo, Monaco, &amp;quot;Courier New&amp;quot;, monospace; white-space: pre;&quot;&gt;&lt;span style=&quot;color: rgb(106, 153, 85);&quot;&gt;/* Initializing and resizing*/&lt;/span&gt;&lt;/div&gt;&lt;div style=&quot;color: rgb(204, 204, 204); font-family: Menlo, Monaco, &amp;quot;Courier New&amp;quot;, monospace; white-space: pre;&quot;&gt;&lt;span style=&quot;color: rgb(220, 220, 170);&quot;&gt;resize&lt;/span&gt;(&lt;span style=&quot;color: rgb(86, 156, 214);&quot;&gt;long&lt;/span&gt; &lt;span style=&quot;color: rgb(156, 220, 254);&quot;&gt;newSizeParam&lt;/span&gt;, &lt;span style=&quot;color: rgb(78, 201, 176);&quot;&gt;TN&lt;/span&gt;&lt;span style=&quot;color: rgb(86, 156, 214);&quot;&gt;*&lt;/span&gt; &lt;span style=&quot;color: rgb(156, 220, 254);&quot;&gt;dataPtrParam&lt;/span&gt;[], &lt;span style=&quot;color: rgb(86, 156, 214);&quot;&gt;int&lt;/span&gt; &lt;span style=&quot;color: rgb(156, 220, 254);&quot;&gt;directionParam&lt;/span&gt;): &lt;span style=&quot;color: rgb(86, 156, 214); background-color: initial;&quot;&gt;void&lt;/span&gt;&lt;/div&gt;&lt;br style=&quot;color: rgb(204, 204, 204); font-family: Menlo, Monaco, &amp;quot;Courier New&amp;quot;, monospace; white-space: pre;&quot;&gt;&lt;div style=&quot;color: rgb(204, 204, 204); font-family: Menlo, Monaco, &amp;quot;Courier New&amp;quot;, monospace; white-space: pre;&quot;&gt;&lt;span style=&quot;color: rgb(106, 153, 85);&quot;&gt;/* Deque Operations*/&lt;/span&gt;&lt;/div&gt;&lt;div style=&quot;color: rgb(204, 204, 204); font-family: Menlo, Monaco, &amp;quot;Courier New&amp;quot;, monospace; white-space: pre;&quot;&gt;&lt;span style=&quot;color: rgb(106, 153, 85);&quot;&gt;/* The Object is allocated and pushed inside the Deque Node as Object */&lt;/span&gt;&lt;/div&gt;&lt;div style=&quot;color: rgb(204, 204, 204); font-family: Menlo, Monaco, &amp;quot;Courier New&amp;quot;, monospace; white-space: pre;&quot;&gt;&lt;span style=&quot;color: rgb(220, 220, 170);&quot;&gt;pushBack&lt;/span&gt;(&lt;span style=&quot;color: rgb(78, 201, 176);&quot;&gt;TN&lt;/span&gt;&lt;span style=&quot;color: rgb(86, 156, 214);&quot;&gt;*&lt;/span&gt; &lt;span style=&quot;color: rgb(156, 220, 254);&quot;&gt;dataPtrParam&lt;/span&gt;): &lt;span style=&quot;color: rgb(86, 156, 214); background-color: initial;&quot;&gt;void&lt;/span&gt;&lt;/div&gt;&lt;div style=&quot;color: rgb(204, 204, 204); font-family: Menlo, Monaco, &amp;quot;Courier New&amp;quot;, monospace; white-space: pre;&quot;&gt;&lt;span style=&quot;color: rgb(220, 220, 170);&quot;&gt;pushFront&lt;/span&gt;(&lt;span style=&quot;color: rgb(78, 201, 176);&quot;&gt;TN&lt;/span&gt;&lt;span style=&quot;color: rgb(86, 156, 214);&quot;&gt;*&lt;/span&gt; &lt;span style=&quot;color: rgb(156, 220, 254);&quot;&gt;dataPtrParam&lt;/span&gt;): &lt;span style=&quot;color: rgb(86, 156, 214); background-color: initial;&quot;&gt;void&lt;/span&gt;&lt;/div&gt;&lt;div style=&quot;color: rgb(204, 204, 204); font-family: Menlo, Monaco, &amp;quot;Courier New&amp;quot;, monospace; white-space: pre;&quot;&gt;&lt;span style=&quot;color: rgb(106, 153, 85);&quot;&gt;/* It is application/user responsibility to free the object returned */&lt;/span&gt;&lt;/div&gt;&lt;div style=&quot;color: rgb(204, 204, 204); font-family: Menlo, Monaco, &amp;quot;Courier New&amp;quot;, monospace; white-space: pre;&quot;&gt;&lt;span style=&quot;color: rgb(220, 220, 170);&quot;&gt;popBack&lt;/span&gt;(): &lt;span style=&quot;background-color: initial; color: rgb(78, 201, 176);&quot;&gt;TN &lt;/span&gt;&lt;span style=&quot;background-color: initial; color: rgb(86, 156, 214);&quot;&gt;*&lt;/span&gt;&lt;/div&gt;&lt;div style=&quot;font-family: Menlo, Monaco, &amp;quot;Courier New&amp;quot;, monospace; white-space: pre;&quot;&gt;&lt;span style=&quot;color: rgb(220, 220, 170);&quot;&gt;popFront&lt;/span&gt;&lt;font color=&quot;#cccccc&quot;&gt;(): &lt;/font&gt;&lt;span style=&quot;color: rgb(78, 201, 176); background-color: initial;&quot;&gt;TN&lt;/span&gt;&lt;span style=&quot;background-color: initial;&quot;&gt;&lt;font color=&quot;#569cd6&quot;&gt; *&lt;/font&gt;&lt;/span&gt;&lt;/div&gt;&lt;br style=&quot;color: rgb(204, 204, 204); font-family: Menlo, Monaco, &amp;quot;Courier New&amp;quot;, monospace; white-space: pre;&quot;&gt;&lt;div style=&quot;color: rgb(204, 204, 204); font-family: Menlo, Monaco, &amp;quot;Courier New&amp;quot;, monospace; white-space: pre;&quot;&gt;&lt;span style=&quot;color: rgb(106, 153, 85);&quot;&gt;/* Getters */&lt;/span&gt;&lt;/div&gt;&lt;div style=&quot;color: rgb(204, 204, 204); font-family: Menlo, Monaco, &amp;quot;Courier New&amp;quot;, monospace; white-space: pre;&quot;&gt;&lt;span style=&quot;color: rgb(220, 220, 170);&quot;&gt;front&lt;/span&gt;(): &lt;span style=&quot;background-color: initial; color: rgb(78, 201, 176);&quot;&gt;TN &lt;/span&gt;&lt;span style=&quot;background-color: initial; color: rgb(86, 156, 214);&quot;&gt;*&lt;/span&gt;&lt;span style=&quot;background-color: initial;&quot;&gt; &lt;/span&gt;&lt;/div&gt;&lt;div style=&quot;color: rgb(204, 204, 204); font-family: Menlo, Monaco, &amp;quot;Courier New&amp;quot;, monospace; white-space: pre;&quot;&gt;&lt;span style=&quot;color: rgb(220, 220, 170);&quot;&gt;back&lt;/span&gt;(): &lt;span style=&quot;background-color: initial; color: rgb(78, 201, 176);&quot;&gt;TN &lt;/span&gt;&lt;span style=&quot;background-color: initial; color: rgb(86, 156, 214);&quot;&gt;*&lt;/span&gt;&lt;span style=&quot;background-color: initial;&quot;&gt; &lt;/span&gt;&lt;/div&gt;&lt;div style=&quot;color: rgb(204, 204, 204); font-family: Menlo, Monaco, &amp;quot;Courier New&amp;quot;, monospace; white-space: pre;&quot;&gt;    &lt;/div&gt;&lt;div style=&quot;color: rgb(204, 204, 204); font-family: Menlo, Monaco, &amp;quot;Courier New&amp;quot;, monospace; white-space: pre;&quot;&gt;&lt;span style=&quot;color: rgb(106, 153, 85);&quot;&gt;/* Overloading operators */&lt;/span&gt;&lt;/div&gt;&lt;div style=&quot;color: rgb(204, 204, 204); font-family: Menlo, Monaco, &amp;quot;Courier New&amp;quot;, monospace; white-space: pre;&quot;&gt;&lt;span style=&quot;color: rgb(220, 220, 170);&quot;&gt;operator[]&lt;/span&gt;(&lt;span style=&quot;color: rgb(86, 156, 214);&quot;&gt;long&lt;/span&gt; &lt;span style=&quot;color: rgb(156, 220, 254);&quot;&gt;postionParam&lt;/span&gt;): &lt;span style=&quot;background-color: initial; color: rgb(78, 201, 176);&quot;&gt;TN &lt;/span&gt;&lt;span style=&quot;background-color: initial; color: rgb(86, 156, 214);&quot;&gt;*&lt;/span&gt;&lt;span style=&quot;background-color: initial;&quot;&gt; &lt;/span&gt;&lt;/div&gt;" style="text;strokeColor=none;fillColor=none;align=left;verticalAlign=top;spacingLeft=4;spacingRight=4;overflow=hidden;rotatable=0;points=[[0,0.5],[1,0.5]];portConstraint=eastwest;whiteSpace=wrap;html=1;" vertex="1" parent="IBJ0tuOsSYh19sOJ16CG-47">
          <mxGeometry y="100" width="530" height="350" as="geometry" />
        </mxCell>
        <mxCell id="IBJ0tuOsSYh19sOJ16CG-52" value="Node" style="swimlane;fontStyle=1;align=center;verticalAlign=top;childLayout=stackLayout;horizontal=1;startSize=26;horizontalStack=0;resizeParent=1;resizeParentMax=0;resizeLast=0;collapsible=1;marginBottom=0;whiteSpace=wrap;html=1;" vertex="1" parent="WIyWlLk6GJQsqaUBKTNV-1">
          <mxGeometry x="-1380" y="-430" width="360" height="110" as="geometry" />
        </mxCell>
        <mxCell id="IBJ0tuOsSYh19sOJ16CG-54" value="&lt;meta charset=&quot;utf-8&quot;&gt;&lt;div style=&quot;forced-color-adjust: none; border-color: rgb(0, 0, 0); color: rgb(204, 204, 204); font-family: Menlo, Monaco, &amp;quot;Courier New&amp;quot;, monospace; font-size: 12px; font-style: normal; font-variant-ligatures: normal; font-variant-caps: normal; font-weight: 400; letter-spacing: normal; orphans: 2; text-align: left; text-indent: 0px; text-transform: none; widows: 2; word-spacing: 0px; -webkit-text-stroke-width: 0px; white-space: pre; text-decoration-thickness: initial; text-decoration-style: initial; text-decoration-color: initial;&quot;&gt;&lt;span style=&quot;forced-color-adjust: none; border-color: rgb(0, 0, 0); color: rgb(156, 220, 254);&quot;&gt;mNext: &lt;/span&gt;&lt;span style=&quot;forced-color-adjust: none; border-color: rgb(0, 0, 0); color: rgb(78, 201, 176);&quot;&gt;Node&lt;/span&gt;&lt;span style=&quot;forced-color-adjust: none; border-color: rgb(0, 0, 0); color: rgb(212, 212, 212);&quot;&gt;&amp;lt;&lt;/span&gt;&lt;span style=&quot;forced-color-adjust: none; border-color: rgb(0, 0, 0); color: rgb(78, 201, 176);&quot;&gt;TN&lt;/span&gt;&lt;span style=&quot;forced-color-adjust: none; border-color: rgb(0, 0, 0); color: rgb(212, 212, 212);&quot;&gt;&amp;gt; *&lt;/span&gt;&lt;/div&gt;&lt;div style=&quot;forced-color-adjust: none; border-color: rgb(0, 0, 0); color: rgb(204, 204, 204); font-family: Menlo, Monaco, &amp;quot;Courier New&amp;quot;, monospace; font-size: 12px; font-style: normal; font-variant-ligatures: normal; font-variant-caps: normal; font-weight: 400; letter-spacing: normal; orphans: 2; text-align: left; text-indent: 0px; text-transform: none; widows: 2; word-spacing: 0px; -webkit-text-stroke-width: 0px; white-space: pre; text-decoration-thickness: initial; text-decoration-style: initial; text-decoration-color: initial;&quot;&gt;&lt;span style=&quot;forced-color-adjust: none; border-color: rgb(0, 0, 0); color: rgb(156, 220, 254);&quot;&gt;mPrev: &lt;/span&gt;&lt;span style=&quot;forced-color-adjust: none; border-color: rgb(0, 0, 0); color: rgb(78, 201, 176);&quot;&gt;Node&lt;/span&gt;&lt;span style=&quot;forced-color-adjust: none; border-color: rgb(0, 0, 0); color: rgb(212, 212, 212);&quot;&gt;&amp;lt;&lt;/span&gt;&lt;span style=&quot;forced-color-adjust: none; border-color: rgb(0, 0, 0); color: rgb(78, 201, 176);&quot;&gt;TN&lt;/span&gt;&lt;span style=&quot;forced-color-adjust: none; border-color: rgb(0, 0, 0); color: rgb(212, 212, 212);&quot;&gt;&amp;gt; *&lt;/span&gt;&lt;/div&gt;&lt;div style=&quot;forced-color-adjust: none; border-color: rgb(0, 0, 0); color: rgb(204, 204, 204); font-family: Menlo, Monaco, &amp;quot;Courier New&amp;quot;, monospace; font-size: 12px; font-style: normal; font-variant-ligatures: normal; font-variant-caps: normal; font-weight: 400; letter-spacing: normal; orphans: 2; text-align: left; text-indent: 0px; text-transform: none; widows: 2; word-spacing: 0px; -webkit-text-stroke-width: 0px; white-space: pre; text-decoration-thickness: initial; text-decoration-style: initial; text-decoration-color: initial;&quot;&gt;&lt;span style=&quot;forced-color-adjust: none; border-color: rgb(0, 0, 0); color: rgb(156, 220, 254);&quot;&gt;mDataPtr: &lt;/span&gt;&lt;span style=&quot;forced-color-adjust: none; border-color: rgb(0, 0, 0); color: rgb(78, 201, 176);&quot;&gt;TN &lt;/span&gt;&lt;span style=&quot;forced-color-adjust: none; border-color: rgb(0, 0, 0); color: rgb(212, 212, 212);&quot;&gt;*&lt;/span&gt; &lt;/div&gt;" style="text;strokeColor=none;fillColor=none;align=left;verticalAlign=top;spacingLeft=4;spacingRight=4;overflow=hidden;rotatable=0;points=[[0,0.5],[1,0.5]];portConstraint=eastwest;whiteSpace=wrap;html=1;" vertex="1" parent="IBJ0tuOsSYh19sOJ16CG-52">
          <mxGeometry y="26" width="360" height="84" as="geometry" />
        </mxCell>
        <mxCell id="IBJ0tuOsSYh19sOJ16CG-60" value="" style="endArrow=diamondThin;endFill=0;endSize=24;html=1;rounded=0;exitX=1.028;exitY=0.286;exitDx=0;exitDy=0;exitPerimeter=0;" edge="1" parent="WIyWlLk6GJQsqaUBKTNV-1">
          <mxGeometry width="160" relative="1" as="geometry">
            <mxPoint x="-1020.0000000000001" y="-419.97600000000034" as="sourcePoint" />
            <mxPoint x="-690.08" y="-420" as="targetPoint" />
            <Array as="points">
              <mxPoint x="-860.08" y="-420" />
            </Array>
          </mxGeometry>
        </mxCell>
        <mxCell id="IBJ0tuOsSYh19sOJ16CG-62" value="EDLL" style="swimlane;fontStyle=1;align=center;verticalAlign=top;childLayout=stackLayout;horizontal=1;startSize=26;horizontalStack=0;resizeParent=1;resizeParentMax=0;resizeLast=0;collapsible=1;marginBottom=0;whiteSpace=wrap;html=1;" vertex="1" parent="WIyWlLk6GJQsqaUBKTNV-1">
          <mxGeometry x="-690" y="-300" width="540" height="130" as="geometry" />
        </mxCell>
        <mxCell id="IBJ0tuOsSYh19sOJ16CG-63" value="" style="line;strokeWidth=1;fillColor=none;align=left;verticalAlign=middle;spacingTop=-1;spacingLeft=3;spacingRight=3;rotatable=0;labelPosition=right;points=[];portConstraint=eastwest;strokeColor=inherit;" vertex="1" parent="IBJ0tuOsSYh19sOJ16CG-62">
          <mxGeometry y="26" width="540" height="8" as="geometry" />
        </mxCell>
        <mxCell id="IBJ0tuOsSYh19sOJ16CG-65" value="&lt;div style=&quot;forced-color-adjust: none; border-color: rgb(0, 0, 0);&quot;&gt;&lt;div style=&quot;forced-color-adjust: none; border-color: rgb(0, 0, 0);&quot;&gt;&lt;span style=&quot;background-color: initial;&quot;&gt;&lt;font color=&quot;#569cd6&quot;&gt;+&amp;nbsp;&lt;/font&gt;&lt;/span&gt;&lt;span style=&quot;background-color: initial; color: rgb(220, 220, 170);&quot;&gt;addElementAtPosition&lt;/span&gt;&lt;span style=&quot;background-color: initial;&quot;&gt;(&lt;/span&gt;&lt;span style=&quot;background-color: initial; color: rgb(86, 156, 214);&quot;&gt;int&lt;/span&gt;&lt;span style=&quot;background-color: initial;&quot;&gt; &lt;/span&gt;&lt;span style=&quot;background-color: initial; color: rgb(156, 220, 254);&quot;&gt;posParam&lt;/span&gt;&lt;span style=&quot;background-color: initial;&quot;&gt;, &lt;/span&gt;&lt;span style=&quot;background-color: initial; color: rgb(78, 201, 176);&quot;&gt;TN&lt;/span&gt;&lt;span style=&quot;background-color: initial; color: rgb(86, 156, 214);&quot;&gt;*&lt;/span&gt;&lt;span style=&quot;background-color: initial;&quot;&gt; &lt;/span&gt;&lt;span style=&quot;background-color: initial; color: rgb(156, 220, 254);&quot;&gt;elementPtrParam&lt;/span&gt;&lt;span style=&quot;background-color: initial;&quot;&gt;):&amp;nbsp;&lt;/span&gt;&lt;span style=&quot;color: rgb(86, 156, 214); background-color: initial;&quot;&gt;void&lt;/span&gt;&lt;/div&gt;&lt;div style=&quot;forced-color-adjust: none; border-color: rgb(0, 0, 0);&quot;&gt;&lt;span style=&quot;background-color: initial;&quot;&gt;&lt;font color=&quot;#569cd6&quot;&gt;+&amp;nbsp;&lt;/font&gt;&lt;/span&gt;&lt;span style=&quot;background-color: initial; color: rgb(220, 220, 170);&quot;&gt;removeElementAtPosition&lt;/span&gt;&lt;span style=&quot;background-color: initial;&quot;&gt;(&lt;/span&gt;&lt;span style=&quot;background-color: initial; color: rgb(86, 156, 214);&quot;&gt;int&lt;/span&gt;&lt;span style=&quot;background-color: initial;&quot;&gt; &lt;/span&gt;&lt;span style=&quot;background-color: initial; color: rgb(156, 220, 254);&quot;&gt;posParam&lt;/span&gt;&lt;span style=&quot;background-color: initial;&quot;&gt;):&amp;nbsp;&lt;/span&gt;&lt;span style=&quot;color: rgb(86, 156, 214); background-color: initial;&quot;&gt;void&lt;/span&gt;&lt;/div&gt;&lt;div style=&quot;forced-color-adjust: none; border-color: rgb(0, 0, 0);&quot;&gt;&lt;br&gt;&lt;/div&gt;&lt;div style=&quot;forced-color-adjust: none; border-color: rgb(0, 0, 0);&quot;&gt;&lt;span style=&quot;forced-color-adjust: none; border-color: rgb(0, 0, 0);&quot;&gt;-&amp;nbsp;&lt;/span&gt;&lt;span style=&quot;forced-color-adjust: none; border-color: rgb(0, 0, 0); color: rgb(220, 220, 170);&quot;&gt;getNodeAtPosition&lt;/span&gt;(&lt;span style=&quot;forced-color-adjust: none; border-color: rgb(0, 0, 0); color: rgb(86, 156, 214);&quot;&gt;int&lt;/span&gt; &lt;span style=&quot;forced-color-adjust: none; border-color: rgb(0, 0, 0); color: rgb(156, 220, 254);&quot;&gt;posParam&lt;/span&gt;):&amp;nbsp;&lt;span style=&quot;background-color: initial; color: rgb(78, 201, 176);&quot;&gt;Node&lt;/span&gt;&lt;span style=&quot;background-color: initial;&quot;&gt;&amp;lt;&lt;/span&gt;&lt;span style=&quot;background-color: initial; color: rgb(78, 201, 176);&quot;&gt;TN&lt;/span&gt;&lt;span style=&quot;background-color: initial;&quot;&gt;&amp;gt;&lt;font color=&quot;#569cd6&quot;&gt;&amp;nbsp;*&lt;/font&gt;&lt;/span&gt;&lt;/div&gt;&lt;/div&gt;&lt;div style=&quot;forced-color-adjust: none; border-color: rgb(0, 0, 0);&quot;&gt;&lt;br style=&quot;forced-color-adjust: none; border-color: rgb(0, 0, 0); color: rgb(204, 204, 204); font-family: Menlo, Monaco, &amp;quot;Courier New&amp;quot;, monospace; font-size: 12px; font-style: normal; font-variant-ligatures: normal; font-variant-caps: normal; font-weight: 400; letter-spacing: normal; orphans: 2; text-align: left; text-indent: 0px; text-transform: none; widows: 2; word-spacing: 0px; -webkit-text-stroke-width: 0px; white-space: pre; background-color: rgb(31, 31, 31); text-decoration-thickness: initial; text-decoration-style: initial; text-decoration-color: initial;&quot;&gt;&lt;/div&gt;" style="text;strokeColor=none;fillColor=none;align=left;verticalAlign=top;spacingLeft=4;spacingRight=4;overflow=hidden;rotatable=0;points=[[0,0.5],[1,0.5]];portConstraint=eastwest;whiteSpace=wrap;html=1;" vertex="1" parent="IBJ0tuOsSYh19sOJ16CG-62">
          <mxGeometry y="34" width="540" height="96" as="geometry" />
        </mxCell>
        <mxCell id="IBJ0tuOsSYh19sOJ16CG-70" value="&lt;span style=&quot;color: rgb(78, 201, 176); font-family: Menlo, Monaco, &amp;quot;Courier New&amp;quot;, monospace; font-weight: 400; white-space: pre; background-color: rgb(31, 31, 31);&quot;&gt;XyzEmployeeManager&lt;/span&gt;" style="swimlane;fontStyle=1;align=center;verticalAlign=top;childLayout=stackLayout;horizontal=1;startSize=26;horizontalStack=0;resizeParent=1;resizeParentMax=0;resizeLast=0;collapsible=1;marginBottom=0;whiteSpace=wrap;html=1;" vertex="1" parent="WIyWlLk6GJQsqaUBKTNV-1">
          <mxGeometry x="150" y="-390" width="560" height="260" as="geometry" />
        </mxCell>
        <mxCell id="IBJ0tuOsSYh19sOJ16CG-71" value="" style="line;strokeWidth=1;fillColor=none;align=left;verticalAlign=middle;spacingTop=-1;spacingLeft=3;spacingRight=3;rotatable=0;labelPosition=right;points=[];portConstraint=eastwest;strokeColor=inherit;" vertex="1" parent="IBJ0tuOsSYh19sOJ16CG-70">
          <mxGeometry y="26" width="560" height="8" as="geometry" />
        </mxCell>
        <mxCell id="IBJ0tuOsSYh19sOJ16CG-72" value="&lt;div style=&quot;forced-color-adjust: none; border-color: rgb(0, 0, 0); color: rgb(204, 204, 204); font-family: Menlo, Monaco, &amp;quot;Courier New&amp;quot;, monospace; font-size: 12px; font-style: normal; font-variant-ligatures: normal; font-variant-caps: normal; font-weight: 400; letter-spacing: normal; orphans: 2; text-align: left; text-indent: 0px; text-transform: none; widows: 2; word-spacing: 0px; -webkit-text-stroke-width: 0px; white-space: pre; text-decoration-thickness: initial; text-decoration-style: initial; text-decoration-color: initial;&quot;&gt;&lt;div style=&quot;background-color: rgb(31, 31, 31); line-height: 18px;&quot;&gt;&lt;span style=&quot;color: #9cdcfe;&quot;&gt;mEmployeeDequePtr: &lt;/span&gt;&lt;span style=&quot;background-color: initial; color: rgb(78, 201, 176);&quot;&gt;EDLL&lt;/span&gt;&lt;span style=&quot;background-color: initial; color: rgb(212, 212, 212);&quot;&gt;&amp;lt;&lt;/span&gt;&lt;span style=&quot;background-color: initial; color: rgb(78, 201, 176);&quot;&gt;XyzEmployeeIF&lt;/span&gt;&lt;span style=&quot;background-color: initial; color: rgb(212, 212, 212);&quot;&gt;&amp;gt;&lt;/span&gt; &lt;span style=&quot;background-color: initial; color: rgb(212, 212, 212);&quot;&gt;*&lt;/span&gt;&lt;/div&gt;&lt;/div&gt;" style="text;strokeColor=none;fillColor=none;align=left;verticalAlign=top;spacingLeft=4;spacingRight=4;overflow=hidden;rotatable=0;points=[[0,0.5],[1,0.5]];portConstraint=eastwest;whiteSpace=wrap;html=1;" vertex="1" parent="IBJ0tuOsSYh19sOJ16CG-70">
          <mxGeometry y="34" width="560" height="66" as="geometry" />
        </mxCell>
        <mxCell id="IBJ0tuOsSYh19sOJ16CG-73" value="&lt;div style=&quot;color: rgb(204, 204, 204); font-family: Menlo, Monaco, &amp;quot;Courier New&amp;quot;, monospace; white-space: pre;&quot;&gt;&lt;div&gt;&lt;span style=&quot;color: rgb(106, 153, 85);&quot;&gt;/* Adding new employees */&lt;/span&gt;&lt;/div&gt;&lt;div&gt;&lt;span style=&quot;color: rgb(220, 220, 170);&quot;&gt;addNewFullTimeEmployee&lt;/span&gt;(): &lt;span style=&quot;color: rgb(86, 156, 214);&quot;&gt;void&lt;/span&gt;&lt;/div&gt;&lt;div&gt;&lt;span style=&quot;color: rgb(220, 220, 170);&quot;&gt;addNewContractorEmployee&lt;/span&gt;(): &lt;span style=&quot;color: rgb(86, 156, 214);&quot;&gt;void&lt;/span&gt;&lt;/div&gt;&lt;div&gt;&lt;span style=&quot;color: rgb(220, 220, 170);&quot;&gt;addNewInternEmployee&lt;/span&gt;(): &lt;span style=&quot;color: rgb(86, 156, 214);&quot;&gt;void&lt;/span&gt;&lt;/div&gt;&lt;br&gt;&lt;div&gt;&lt;span style=&quot;color: rgb(106, 153, 85);&quot;&gt;/* Print all employees summary*/&lt;/span&gt;&lt;/div&gt;&lt;div&gt;&lt;span style=&quot;color: rgb(220, 220, 170);&quot;&gt;printAllEmployees&lt;/span&gt;(): &lt;span style=&quot;color: rgb(86, 156, 214);&quot;&gt;void&lt;/span&gt;&lt;/div&gt;&lt;/div&gt;" style="text;strokeColor=none;fillColor=none;align=left;verticalAlign=top;spacingLeft=4;spacingRight=4;overflow=hidden;rotatable=0;points=[[0,0.5],[1,0.5]];portConstraint=eastwest;whiteSpace=wrap;html=1;" vertex="1" parent="IBJ0tuOsSYh19sOJ16CG-70">
          <mxGeometry y="100" width="560" height="160" as="geometry" />
        </mxCell>
        <mxCell id="IBJ0tuOsSYh19sOJ16CG-75" value="" style="endArrow=diamondThin;endFill=0;endSize=24;html=1;rounded=0;exitX=0.997;exitY=0.305;exitDx=0;exitDy=0;exitPerimeter=0;" edge="1" parent="WIyWlLk6GJQsqaUBKTNV-1" source="IBJ0tuOsSYh19sOJ16CG-65">
          <mxGeometry width="160" relative="1" as="geometry">
            <mxPoint x="-90" y="-370" as="sourcePoint" />
            <mxPoint x="140" y="-230" as="targetPoint" />
          </mxGeometry>
        </mxCell>
        <mxCell id="IBJ0tuOsSYh19sOJ16CG-79" style="edgeStyle=orthogonalEdgeStyle;rounded=0;orthogonalLoop=1;jettySize=auto;html=1;entryX=0.393;entryY=-0.046;entryDx=0;entryDy=0;entryPerimeter=0;" edge="1" parent="WIyWlLk6GJQsqaUBKTNV-1" target="IBJ0tuOsSYh19sOJ16CG-37">
          <mxGeometry relative="1" as="geometry">
            <mxPoint x="-430" y="-13" as="targetPoint" />
            <mxPoint x="-440" y="-180" as="sourcePoint" />
            <Array as="points">
              <mxPoint x="-440" y="-13" />
              <mxPoint x="-438" y="-13" />
            </Array>
          </mxGeometry>
        </mxCell>
        <mxCell id="IBJ0tuOsSYh19sOJ16CG-84" value="Use" style="endArrow=open;endSize=12;dashed=1;html=1;rounded=0;exitX=0.478;exitY=0.011;exitDx=0;exitDy=0;exitPerimeter=0;entryX=0.474;entryY=1.012;entryDx=0;entryDy=0;entryPerimeter=0;" edge="1" parent="WIyWlLk6GJQsqaUBKTNV-1" source="IBJ0tuOsSYh19sOJ16CG-62" target="IBJ0tuOsSYh19sOJ16CG-50">
          <mxGeometry width="160" relative="1" as="geometry">
            <mxPoint x="-590" y="-390" as="sourcePoint" />
            <mxPoint x="-420" y="-390" as="targetPoint" />
          </mxGeometry>
        </mxCell>
      </root>
    </mxGraphModel>
  </diagram>
</mxfile>
